<svg width="100" height="100" viewBox="0 0 100 100" fill="none" xmlns="http://www.w3.org/2000/svg">
<rect x="0.5" y="0.5" width="99" height="99" rx="5.5" stroke="#DBDADE" stroke-dasharray="8 8"/>
<path d="M18.7621 50.6174C18.7941 50.6174 18.8881 50.6194 19.0441 50.6234C19.2041 50.6234 19.3961 50.6234 19.6201 50.6234C19.8441 50.6194 20.0721 50.6194 20.3041 50.6234C20.5401 50.6234 20.7501 50.6254 20.9341 50.6294C21.9941 50.6454 22.8561 50.8214 23.5201 51.1574C24.1841 51.4934 24.6701 51.9774 24.9781 52.6094C25.2901 53.2374 25.4461 54.0034 25.4461 54.9074C25.4461 55.8474 25.2801 56.6454 24.9481 57.3014C24.6161 57.9534 24.1081 58.4494 23.4241 58.7894C22.7441 59.1254 21.8821 59.2934 20.8381 59.2934H18.7621V50.6174ZM20.0701 51.6974V58.2134H20.8501C21.5061 58.2134 22.0761 58.1074 22.5601 57.8954C23.0481 57.6794 23.4261 57.3314 23.6941 56.8514C23.9621 56.3674 24.0961 55.7214 24.0961 54.9134C24.0961 54.1214 23.9681 53.4914 23.7121 53.0234C23.4561 52.5514 23.0881 52.2134 22.6081 52.0094C22.1321 51.8014 21.5581 51.6974 20.8861 51.6974H20.0701ZM26.9364 59.2934V53.0894H28.1664V54.3614C28.2704 54.0574 28.4144 53.8034 28.5984 53.5994C28.7864 53.3914 29.0044 53.2354 29.2524 53.1314C29.5004 53.0234 29.7624 52.9694 30.0384 52.9694C30.1224 52.9694 30.2024 52.9754 30.2784 52.9874C30.3544 52.9954 30.4144 53.0114 30.4584 53.0354V54.2714C30.4064 54.2474 30.3384 54.2314 30.2544 54.2234C30.1744 54.2154 30.1044 54.2094 30.0444 54.2054C29.7724 54.1854 29.5244 54.1994 29.3004 54.2474C29.0764 54.2954 28.8824 54.3754 28.7184 54.4874C28.5584 54.5994 28.4344 54.7454 28.3464 54.9254C28.2624 55.1054 28.2204 55.3174 28.2204 55.5614V59.2934H26.9364ZM34.0619 59.4134C33.4819 59.4134 32.9739 59.2894 32.5379 59.0414C32.1059 58.7894 31.7699 58.4254 31.5299 57.9494C31.2939 57.4734 31.1759 56.8974 31.1759 56.2214C31.1759 55.5694 31.2879 54.9994 31.5119 54.5114C31.7399 54.0234 32.0699 53.6454 32.5019 53.3774C32.9339 53.1054 33.4559 52.9694 34.0679 52.9694C34.6519 52.9694 35.1579 53.0974 35.5859 53.3534C36.0139 53.6054 36.3459 53.9754 36.5819 54.4634C36.8179 54.9474 36.9359 55.5334 36.9359 56.2214C36.9359 56.8494 36.8239 57.4034 36.5999 57.8834C36.3799 58.3634 36.0559 58.7394 35.6279 59.0114C35.2039 59.2794 34.6819 59.4134 34.0619 59.4134ZM34.0679 58.4234C34.4199 58.4234 34.7139 58.3314 34.9499 58.1474C35.1899 57.9594 35.3699 57.6974 35.4899 57.3614C35.6099 57.0214 35.6699 56.6294 35.6699 56.1854C35.6699 55.7734 35.6159 55.3994 35.5079 55.0634C35.4039 54.7234 35.2339 54.4534 34.9979 54.2534C34.7619 54.0534 34.4519 53.9534 34.0679 53.9534C33.7079 53.9534 33.4079 54.0454 33.1679 54.2294C32.9279 54.4094 32.7459 54.6674 32.6219 55.0034C32.5019 55.3354 32.4419 55.7294 32.4419 56.1854C32.4419 56.5894 32.4959 56.9614 32.6039 57.3014C32.7119 57.6414 32.8859 57.9134 33.1259 58.1174C33.3659 58.3214 33.6799 58.4234 34.0679 58.4234ZM38.3153 61.2254V53.0894H39.5993L39.6113 54.1214C39.6873 53.9854 39.7853 53.8514 39.9053 53.7194C40.0253 53.5834 40.1673 53.4594 40.3313 53.3474C40.4993 53.2314 40.6893 53.1394 40.9013 53.0714C41.1173 53.0034 41.3553 52.9694 41.6153 52.9694C42.1033 52.9694 42.5333 53.0834 42.9053 53.3114C43.2813 53.5354 43.5733 53.8814 43.7813 54.3494C43.9933 54.8134 44.0993 55.4034 44.0993 56.1194C44.0993 56.8394 43.9933 57.4434 43.7813 57.9314C43.5733 58.4194 43.2753 58.7894 42.8873 59.0414C42.4993 59.2894 42.0393 59.4134 41.5073 59.4134C41.2513 59.4134 41.0213 59.3774 40.8173 59.3054C40.6133 59.2334 40.4333 59.1394 40.2773 59.0234C40.1213 58.9034 39.9873 58.7754 39.8753 58.6394C39.7673 58.4994 39.6773 58.3614 39.6053 58.2254V61.2254H38.3153ZM41.2373 58.4354C41.7133 58.4354 42.1033 58.2514 42.4073 57.8834C42.7153 57.5114 42.8693 56.9314 42.8693 56.1434C42.8693 55.4674 42.7273 54.9334 42.4433 54.5414C42.1633 54.1454 41.7613 53.9474 41.2373 53.9474C40.6973 53.9474 40.2893 54.1534 40.0133 54.5654C39.7373 54.9734 39.5993 55.4994 39.5993 56.1434C39.5993 56.5634 39.6593 56.9474 39.7793 57.2954C39.9033 57.6394 40.0873 57.9154 40.3313 58.1234C40.5753 58.3314 40.8773 58.4354 41.2373 58.4354ZM49.4682 53.0894V59.2934H48.2322V53.0894H49.4682ZM49.4922 50.6234V51.8894H48.2022V50.6234H49.4922ZM51.3817 59.2934V53.0894H52.6297V53.9834C52.8057 53.7114 53.0457 53.4754 53.3497 53.2754C53.6537 53.0714 54.0457 52.9694 54.5257 52.9694C54.7497 52.9694 54.9757 53.0074 55.2037 53.0834C55.4357 53.1594 55.6477 53.2734 55.8397 53.4254C56.0357 53.5734 56.1897 53.7574 56.3017 53.9774C56.4977 53.6814 56.7597 53.4394 57.0877 53.2514C57.4157 53.0634 57.7837 52.9694 58.1917 52.9694C58.4117 52.9694 58.6397 53.0054 58.8757 53.0774C59.1117 53.1454 59.3297 53.2634 59.5297 53.4314C59.7337 53.5954 59.8977 53.8234 60.0217 54.1154C60.1497 54.4074 60.2137 54.7774 60.2137 55.2254V59.2934H58.9237V55.3634C58.9237 55.0234 58.8657 54.7574 58.7497 54.5654C58.6377 54.3734 58.4897 54.2394 58.3057 54.1634C58.1257 54.0834 57.9337 54.0434 57.7297 54.0434C57.5457 54.0434 57.3537 54.0794 57.1537 54.1514C56.9537 54.2234 56.7837 54.3434 56.6437 54.5114C56.5037 54.6794 56.4337 54.9074 56.4337 55.1954V59.2934H55.1497V55.0874C55.1497 54.8594 55.0877 54.6674 54.9637 54.5114C54.8437 54.3554 54.6917 54.2394 54.5077 54.1634C54.3277 54.0834 54.1477 54.0434 53.9677 54.0434C53.7677 54.0434 53.5677 54.0834 53.3677 54.1634C53.1677 54.2434 52.9997 54.3694 52.8637 54.5414C52.7317 54.7094 52.6657 54.9274 52.6657 55.1954V59.2934H51.3817ZM63.5748 59.4134C63.1748 59.4134 62.8188 59.3414 62.5068 59.1974C62.1988 59.0534 61.9568 58.8454 61.7808 58.5734C61.6048 58.3014 61.5168 57.9734 61.5168 57.5894C61.5168 56.9014 61.7608 56.3874 62.2488 56.0474C62.7368 55.7074 63.5148 55.5274 64.5828 55.5074L65.6028 55.4774V55.0274C65.6028 54.6714 65.4968 54.3914 65.2848 54.1874C65.0728 53.9834 64.7468 53.8834 64.3068 53.8874C63.9748 53.8874 63.6788 53.9634 63.4188 54.1154C63.1628 54.2674 62.9948 54.5174 62.9148 54.8654H61.7988C61.8228 54.4534 61.9408 54.1074 62.1528 53.8274C62.3688 53.5434 62.6648 53.3294 63.0408 53.1854C63.4168 53.0414 63.8588 52.9694 64.3668 52.9694C64.9308 52.9694 65.3948 53.0474 65.7588 53.2034C66.1228 53.3554 66.3928 53.5794 66.5688 53.8754C66.7488 54.1714 66.8388 54.5314 66.8388 54.9554V59.2934H65.7528L65.6508 58.1534C65.4188 58.6294 65.1248 58.9594 64.7688 59.1434C64.4168 59.3234 64.0188 59.4134 63.5748 59.4134ZM63.9768 58.5194C64.1728 58.5194 64.3668 58.4854 64.5588 58.4174C64.7508 58.3454 64.9248 58.2494 65.0808 58.1294C65.2368 58.0054 65.3608 57.8674 65.4528 57.7154C65.5488 57.5634 65.5988 57.4074 65.6028 57.2474V56.2214L64.7628 56.2394C64.3348 56.2434 63.9708 56.2874 63.6708 56.3714C63.3748 56.4554 63.1468 56.5854 62.9868 56.7614C62.8308 56.9374 62.7528 57.1714 62.7528 57.4634C62.7528 57.7954 62.8688 58.0554 63.1008 58.2434C63.3328 58.4274 63.6248 58.5194 63.9768 58.5194ZM71.3314 61.3454C70.3234 61.3454 69.5434 61.2034 68.9914 60.9194C68.4394 60.6394 68.1634 60.2474 68.1634 59.7434C68.1634 59.5234 68.2154 59.3374 68.3194 59.1854C68.4274 59.0294 68.5534 58.9014 68.6974 58.8014C68.8454 58.7014 68.9814 58.6234 69.1054 58.5674C69.2294 58.5074 69.3094 58.4654 69.3454 58.4414C69.2774 58.4014 69.1894 58.3514 69.0814 58.2914C68.9774 58.2274 68.8834 58.1434 68.7994 58.0394C68.7154 57.9314 68.6734 57.7914 68.6734 57.6194C68.6734 57.4194 68.7674 57.2354 68.9554 57.0674C69.1474 56.8954 69.4334 56.7694 69.8134 56.6894C69.4374 56.5054 69.1454 56.2574 68.9374 55.9454C68.7334 55.6334 68.6314 55.3014 68.6314 54.9494C68.6314 54.5454 68.7454 54.1974 68.9734 53.9054C69.2014 53.6094 69.5214 53.3834 69.9334 53.2274C70.3494 53.0714 70.8374 52.9934 71.3974 52.9934C71.8054 52.9934 72.1474 53.0394 72.4234 53.1314C72.6994 53.2234 72.9534 53.3514 73.1854 53.5154C73.2614 53.4874 73.3694 53.4454 73.5094 53.3894C73.6494 53.3294 73.8034 53.2654 73.9714 53.1974C74.1434 53.1294 74.3054 53.0634 74.4574 52.9994C74.6134 52.9354 74.7394 52.8834 74.8354 52.8434L74.8294 53.9594L73.7494 54.1574C73.8054 54.2774 73.8494 54.4094 73.8814 54.5534C73.9174 54.6974 73.9354 54.8294 73.9354 54.9494C73.9354 55.3094 73.8374 55.6414 73.6414 55.9454C73.4454 56.2454 73.1514 56.4854 72.7594 56.6654C72.3674 56.8454 71.8774 56.9354 71.2894 56.9354C71.2334 56.9354 71.1614 56.9354 71.0734 56.9354C70.9854 56.9314 70.9114 56.9254 70.8514 56.9174C70.4794 56.9294 70.2234 56.9734 70.0834 57.0494C69.9434 57.1214 69.8734 57.2014 69.8734 57.2894C69.8734 57.4014 69.9634 57.4774 70.1434 57.5174C70.3234 57.5574 70.6194 57.5914 71.0314 57.6194C71.1794 57.6314 71.3674 57.6434 71.5954 57.6554C71.8274 57.6674 72.0834 57.6834 72.3634 57.7034C73.0434 57.7434 73.5614 57.9134 73.9174 58.2134C74.2774 58.5134 74.4574 58.9114 74.4574 59.4074C74.4574 59.9754 74.1994 60.4394 73.6834 60.7994C73.1674 61.1634 72.3834 61.3454 71.3314 61.3454ZM71.5534 60.5594C72.1014 60.5594 72.5134 60.4794 72.7894 60.3194C73.0694 60.1634 73.2094 59.9294 73.2094 59.6174C73.2094 59.3854 73.1194 59.1954 72.9394 59.0474C72.7594 58.8994 72.4914 58.8134 72.1354 58.7894L70.4794 58.6814C70.3154 58.6734 70.1514 58.7094 69.9874 58.7894C69.8274 58.8694 69.6934 58.9814 69.5854 59.1254C69.4814 59.2654 69.4294 59.4214 69.4294 59.5934C69.4294 59.9054 69.6014 60.1434 69.9454 60.3074C70.2934 60.4754 70.8294 60.5594 71.5534 60.5594ZM71.3254 56.1494C71.7414 56.1494 72.0754 56.0494 72.3274 55.8494C72.5834 55.6454 72.7114 55.3534 72.7114 54.9734C72.7114 54.5814 72.5834 54.2794 72.3274 54.0674C72.0754 53.8514 71.7414 53.7434 71.3254 53.7434C70.9054 53.7434 70.5654 53.8514 70.3054 54.0674C70.0494 54.2834 69.9214 54.5854 69.9214 54.9734C69.9214 55.3414 70.0434 55.6294 70.2874 55.8374C70.5354 56.0454 70.8814 56.1494 71.3254 56.1494ZM76.9045 56.4914C76.9045 56.8634 76.9645 57.1974 77.0845 57.4934C77.2085 57.7854 77.3945 58.0174 77.6425 58.1894C77.8905 58.3574 78.1985 58.4414 78.5665 58.4414C78.9345 58.4414 79.2525 58.3574 79.5205 58.1894C79.7925 58.0214 79.9705 57.7714 80.0545 57.4394H81.2425C81.1705 57.8634 81.0005 58.2234 80.7325 58.5194C80.4685 58.8154 80.1485 59.0394 79.7725 59.1914C79.3965 59.3394 79.0025 59.4134 78.5905 59.4134C78.0025 59.4134 77.4845 59.2874 77.0365 59.0354C76.5885 58.7794 76.2385 58.4154 75.9865 57.9434C75.7385 57.4714 75.6145 56.9094 75.6145 56.2574C75.6145 55.6134 75.7285 55.0454 75.9565 54.5534C76.1845 54.0574 76.5145 53.6694 76.9465 53.3894C77.3785 53.1094 77.8985 52.9694 78.5065 52.9694C79.1065 52.9694 79.6105 53.0974 80.0185 53.3534C80.4305 53.6094 80.7425 53.9694 80.9545 54.4334C81.1665 54.8934 81.2725 55.4374 81.2725 56.0654V56.4914H76.9045ZM76.9045 55.6574H80.0485C80.0485 55.3334 79.9925 55.0394 79.8805 54.7754C79.7685 54.5074 79.5965 54.2974 79.3645 54.1454C79.1365 53.9894 78.8485 53.9114 78.5005 53.9114C78.1445 53.9114 77.8485 53.9974 77.6125 54.1694C77.3765 54.3414 77.1985 54.5614 77.0785 54.8294C76.9625 55.0974 76.9045 55.3734 76.9045 55.6574ZM16.4423 74.2934V65.3774H17.7083V68.9954C17.8083 68.8314 17.9423 68.6754 18.1103 68.5274C18.2823 68.3794 18.4903 68.2594 18.7343 68.1674C18.9823 68.0714 19.2703 68.0234 19.5983 68.0234C20.0023 68.0234 20.3663 68.0994 20.6903 68.2514C21.0183 68.3994 21.2783 68.6154 21.4703 68.8994C21.6663 69.1794 21.7643 69.5134 21.7643 69.9014V74.2934H20.4803V70.1354C20.4803 69.7874 20.3603 69.5194 20.1203 69.3314C19.8803 69.1434 19.5723 69.0494 19.1963 69.0494C18.9443 69.0494 18.7043 69.0934 18.4763 69.1814C18.2523 69.2654 18.0703 69.3934 17.9303 69.5654C17.7943 69.7334 17.7263 69.9454 17.7263 70.2014V74.2934H16.4423ZM24.3869 71.4914C24.3869 71.8634 24.4469 72.1974 24.5669 72.4934C24.6909 72.7854 24.8769 73.0174 25.1249 73.1894C25.3729 73.3574 25.6809 73.4414 26.0489 73.4414C26.4169 73.4414 26.7349 73.3574 27.0029 73.1894C27.2749 73.0214 27.4529 72.7714 27.5369 72.4394H28.7249C28.6529 72.8634 28.4829 73.2234 28.2149 73.5194C27.9509 73.8154 27.6309 74.0394 27.2549 74.1914C26.8789 74.3394 26.4849 74.4134 26.0729 74.4134C25.4849 74.4134 24.9669 74.2874 24.5189 74.0354C24.0709 73.7794 23.7209 73.4154 23.4689 72.9434C23.2209 72.4714 23.0969 71.9094 23.0969 71.2574C23.0969 70.6134 23.2109 70.0454 23.4389 69.5534C23.6669 69.0574 23.9969 68.6694 24.4289 68.3894C24.8609 68.1094 25.3809 67.9694 25.9889 67.9694C26.5889 67.9694 27.0929 68.0974 27.5009 68.3534C27.9129 68.6094 28.2249 68.9694 28.4369 69.4334C28.6489 69.8934 28.7549 70.4374 28.7549 71.0654V71.4914H24.3869ZM24.3869 70.6574H27.5309C27.5309 70.3334 27.4749 70.0394 27.3629 69.7754C27.2509 69.5074 27.0789 69.2974 26.8469 69.1454C26.6189 68.9894 26.3309 68.9114 25.9829 68.9114C25.6269 68.9114 25.3309 68.9974 25.0949 69.1694C24.8589 69.3414 24.6809 69.5614 24.5609 69.8294C24.4449 70.0974 24.3869 70.3734 24.3869 70.6574ZM30.1884 74.2934V68.0894H31.4184V69.3614C31.5224 69.0574 31.6664 68.8034 31.8504 68.5994C32.0384 68.3914 32.2564 68.2354 32.5044 68.1314C32.7524 68.0234 33.0144 67.9694 33.2904 67.9694C33.3744 67.9694 33.4544 67.9754 33.5304 67.9874C33.6064 67.9954 33.6664 68.0114 33.7104 68.0354V69.2714C33.6584 69.2474 33.5904 69.2314 33.5064 69.2234C33.4264 69.2154 33.3564 69.2094 33.2964 69.2054C33.0244 69.1854 32.7764 69.1994 32.5524 69.2474C32.3284 69.2954 32.1344 69.3754 31.9704 69.4874C31.8104 69.5994 31.6864 69.7454 31.5984 69.9254C31.5144 70.1054 31.4724 70.3174 31.4724 70.5614V74.2934H30.1884ZM35.7658 71.4914C35.7658 71.8634 35.8258 72.1974 35.9458 72.4934C36.0698 72.7854 36.2558 73.0174 36.5038 73.1894C36.7518 73.3574 37.0598 73.4414 37.4278 73.4414C37.7958 73.4414 38.1138 73.3574 38.3818 73.1894C38.6538 73.0214 38.8318 72.7714 38.9158 72.4394H40.1038C40.0318 72.8634 39.8618 73.2234 39.5938 73.5194C39.3298 73.8154 39.0098 74.0394 38.6338 74.1914C38.2578 74.3394 37.8638 74.4134 37.4518 74.4134C36.8638 74.4134 36.3458 74.2874 35.8978 74.0354C35.4498 73.7794 35.0998 73.4154 34.8478 72.9434C34.5998 72.4714 34.4758 71.9094 34.4758 71.2574C34.4758 70.6134 34.5898 70.0454 34.8178 69.5534C35.0458 69.0574 35.3758 68.6694 35.8078 68.3894C36.2398 68.1094 36.7598 67.9694 37.3678 67.9694C37.9678 67.9694 38.4718 68.0974 38.8798 68.3534C39.2918 68.6094 39.6038 68.9694 39.8158 69.4334C40.0278 69.8934 40.1338 70.4374 40.1338 71.0654V71.4914H35.7658ZM35.7658 70.6574H38.9098C38.9098 70.3334 38.8538 70.0394 38.7418 69.7754C38.6298 69.5074 38.4578 69.2974 38.2258 69.1454C37.9978 68.9894 37.7098 68.9114 37.3618 68.9114C37.0058 68.9114 36.7098 68.9974 36.4738 69.1694C36.2378 69.3414 36.0598 69.5614 35.9398 69.8294C35.8238 70.0974 35.7658 70.3734 35.7658 70.6574ZM46.5951 74.4134C46.0151 74.4134 45.5071 74.2894 45.0711 74.0414C44.6391 73.7894 44.3031 73.4254 44.0631 72.9494C43.8271 72.4734 43.7091 71.8974 43.7091 71.2214C43.7091 70.5694 43.8211 69.9994 44.0451 69.5114C44.2731 69.0234 44.6031 68.6454 45.0351 68.3774C45.4671 68.1054 45.9891 67.9694 46.6011 67.9694C47.1851 67.9694 47.6911 68.0974 48.1191 68.3534C48.5471 68.6054 48.8791 68.9754 49.1151 69.4634C49.3511 69.9474 49.4691 70.5334 49.4691 71.2214C49.4691 71.8494 49.3571 72.4034 49.1331 72.8834C48.9131 73.3634 48.5891 73.7394 48.1611 74.0114C47.7371 74.2794 47.2151 74.4134 46.5951 74.4134ZM46.6011 73.4234C46.9531 73.4234 47.2471 73.3314 47.4831 73.1474C47.7231 72.9594 47.9031 72.6974 48.0231 72.3614C48.1431 72.0214 48.2031 71.6294 48.2031 71.1854C48.2031 70.7734 48.1491 70.3994 48.0411 70.0634C47.9371 69.7234 47.7671 69.4534 47.5311 69.2534C47.2951 69.0534 46.9851 68.9534 46.6011 68.9534C46.2411 68.9534 45.9411 69.0454 45.7011 69.2294C45.4611 69.4094 45.2791 69.6674 45.1551 70.0034C45.0351 70.3354 44.9751 70.7294 44.9751 71.1854C44.9751 71.5894 45.0291 71.9614 45.1371 72.3014C45.2451 72.6414 45.4191 72.9134 45.6591 73.1174C45.8991 73.3214 46.2131 73.4234 46.6011 73.4234ZM50.8485 74.2934V68.0894H52.0785V69.3614C52.1825 69.0574 52.3265 68.8034 52.5105 68.5994C52.6985 68.3914 52.9165 68.2354 53.1645 68.1314C53.4125 68.0234 53.6745 67.9694 53.9505 67.9694C54.0345 67.9694 54.1145 67.9754 54.1905 67.9874C54.2665 67.9954 54.3265 68.0114 54.3705 68.0354V69.2714C54.3185 69.2474 54.2505 69.2314 54.1665 69.2234C54.0865 69.2154 54.0165 69.2094 53.9565 69.2054C53.6845 69.1854 53.4365 69.1994 53.2125 69.2474C52.9885 69.2954 52.7945 69.3754 52.6305 69.4874C52.4705 69.5994 52.3465 69.7454 52.2585 69.9254C52.1745 70.1054 52.1325 70.3174 52.1325 70.5614V74.2934H50.8485ZM60.6636 67.9694C61.1276 67.9694 61.5396 68.0614 61.8996 68.2454C62.2636 68.4254 62.5576 68.6774 62.7816 69.0014C63.0056 69.3254 63.1416 69.7034 63.1896 70.1354H62.0796C62.0436 69.9314 61.9656 69.7414 61.8456 69.5654C61.7296 69.3894 61.5716 69.2494 61.3716 69.1454C61.1756 69.0374 60.9416 68.9834 60.6696 68.9834C60.1736 68.9834 59.7696 69.1654 59.4576 69.5294C59.1456 69.8934 58.9896 70.4514 58.9896 71.2034C58.9896 71.8914 59.1336 72.4394 59.4216 72.8474C59.7136 73.2554 60.1376 73.4594 60.6936 73.4594C60.9616 73.4594 61.1936 73.4034 61.3896 73.2914C61.5896 73.1794 61.7476 73.0354 61.8636 72.8594C61.9796 72.6834 62.0536 72.5014 62.0856 72.3134H63.1776C63.1336 72.7294 62.9976 73.0954 62.7696 73.4114C62.5456 73.7274 62.2516 73.9734 61.8876 74.1494C61.5276 74.3254 61.1196 74.4134 60.6636 74.4134C60.0996 74.4134 59.5996 74.2914 59.1636 74.0474C58.7276 73.7994 58.3856 73.4374 58.1376 72.9614C57.8936 72.4814 57.7716 71.8994 57.7716 71.2154C57.7716 70.5714 57.8856 70.0054 58.1136 69.5174C58.3416 69.0294 58.6716 68.6494 59.1036 68.3774C59.5396 68.1054 60.0596 67.9694 60.6636 67.9694ZM66.2863 74.3774C65.9183 74.3774 65.6223 74.3294 65.3983 74.2334C65.1783 74.1374 65.0103 74.0094 64.8943 73.8494C64.7783 73.6854 64.7003 73.5014 64.6603 73.2974C64.6243 73.0894 64.6063 72.8754 64.6063 72.6554V65.3774H65.8723V72.5234C65.8723 72.8114 65.9283 73.0314 66.0403 73.1834C66.1563 73.3354 66.3323 73.4214 66.5683 73.4414L66.8923 73.4534V74.2694C66.7923 74.3014 66.6883 74.3274 66.5803 74.3474C66.4763 74.3674 66.3783 74.3774 66.2863 74.3774ZM69.5951 68.0894V74.2934H68.3591V68.0894H69.5951ZM69.6191 65.6234V66.8894H68.3291V65.6234H69.6191ZM73.9644 67.9694C74.4284 67.9694 74.8404 68.0614 75.2004 68.2454C75.5644 68.4254 75.8584 68.6774 76.0824 69.0014C76.3064 69.3254 76.4424 69.7034 76.4904 70.1354H75.3804C75.3444 69.9314 75.2664 69.7414 75.1464 69.5654C75.0304 69.3894 74.8724 69.2494 74.6724 69.1454C74.4764 69.0374 74.2424 68.9834 73.9704 68.9834C73.4744 68.9834 73.0704 69.1654 72.7584 69.5294C72.4464 69.8934 72.2904 70.4514 72.2904 71.2034C72.2904 71.8914 72.4344 72.4394 72.7224 72.8474C73.0144 73.2554 73.4384 73.4594 73.9944 73.4594C74.2624 73.4594 74.4944 73.4034 74.6904 73.2914C74.8904 73.1794 75.0484 73.0354 75.1644 72.8594C75.2804 72.6834 75.3544 72.5014 75.3864 72.3134H76.4784C76.4344 72.7294 76.2984 73.0954 76.0704 73.4114C75.8464 73.7274 75.5524 73.9734 75.1884 74.1494C74.8284 74.3254 74.4204 74.4134 73.9644 74.4134C73.4004 74.4134 72.9004 74.2914 72.4644 74.0474C72.0284 73.7994 71.6864 73.4374 71.4384 72.9614C71.1944 72.4814 71.0724 71.8994 71.0724 71.2154C71.0724 70.5714 71.1864 70.0054 71.4144 69.5174C71.6424 69.0294 71.9724 68.6494 72.4044 68.3774C72.8404 68.1054 73.3604 67.9694 73.9644 67.9694ZM83.5051 74.2934H82.1731L80.3071 71.2994L79.1911 72.4574V74.2934H77.9071V65.3774H79.1911V71.0474L81.9331 68.0894H83.3731L81.1291 70.4834L83.5051 74.2934ZM27.6954 84.0134H26.3034L26.3094 87.7154C26.3094 87.9194 26.3294 88.0694 26.3694 88.1654C26.4134 88.2574 26.4854 88.3174 26.5854 88.3454C26.6894 88.3694 26.8294 88.3814 27.0054 88.3814H27.7314V89.2154C27.6514 89.2474 27.5314 89.2754 27.3714 89.2994C27.2154 89.3234 27.0134 89.3354 26.7654 89.3354C26.3054 89.3354 25.9474 89.2734 25.6914 89.1494C25.4394 89.0254 25.2634 88.8474 25.1634 88.6154C25.0674 88.3794 25.0194 88.0954 25.0194 87.7634V84.0134H24.0114V83.0894H25.0554L25.3734 81.2654H26.3034V83.0834H27.6954V84.0134ZM31.5658 89.4134C30.9858 89.4134 30.4778 89.2894 30.0418 89.0414C29.6098 88.7894 29.2738 88.4254 29.0338 87.9494C28.7978 87.4734 28.6798 86.8974 28.6798 86.2214C28.6798 85.5694 28.7918 84.9994 29.0158 84.5114C29.2438 84.0234 29.5738 83.6454 30.0058 83.3774C30.4378 83.1054 30.9598 82.9694 31.5718 82.9694C32.1558 82.9694 32.6618 83.0974 33.0898 83.3534C33.5178 83.6054 33.8498 83.9754 34.0858 84.4634C34.3218 84.9474 34.4398 85.5334 34.4398 86.2214C34.4398 86.8494 34.3278 87.4034 34.1038 87.8834C33.8838 88.3634 33.5598 88.7394 33.1318 89.0114C32.7078 89.2794 32.1858 89.4134 31.5658 89.4134ZM31.5718 88.4234C31.9238 88.4234 32.2178 88.3314 32.4538 88.1474C32.6938 87.9594 32.8738 87.6974 32.9938 87.3614C33.1138 87.0214 33.1738 86.6294 33.1738 86.1854C33.1738 85.7734 33.1198 85.3994 33.0118 85.0634C32.9078 84.7234 32.7378 84.4534 32.5018 84.2534C32.2658 84.0534 31.9558 83.9534 31.5718 83.9534C31.2118 83.9534 30.9118 84.0454 30.6718 84.2294C30.4318 84.4094 30.2498 84.6674 30.1258 85.0034C30.0058 85.3354 29.9458 85.7294 29.9458 86.1854C29.9458 86.5894 29.9998 86.9614 30.1078 87.3014C30.2158 87.6414 30.3898 87.9134 30.6298 88.1174C30.8698 88.3214 31.1838 88.4234 31.5718 88.4234ZM40.7359 89.4134C40.4239 89.4094 40.1259 89.3634 39.8419 89.2754C39.5579 89.1874 39.3039 89.0554 39.0799 88.8794C38.8599 88.7034 38.6839 88.4854 38.5519 88.2254C38.4239 87.9654 38.3599 87.6634 38.3599 87.3194V83.0894H39.6499V87.1814C39.6499 87.5534 39.7659 87.8554 39.9979 88.0874C40.2299 88.3194 40.5799 88.4354 41.0479 88.4354C41.4719 88.4354 41.8119 88.3254 42.0679 88.1054C42.3239 87.8814 42.4519 87.5554 42.4519 87.1274V83.0894H43.7299V89.2934H42.7339L42.5899 88.0934C42.5179 88.4174 42.3879 88.6774 42.1999 88.8734C42.0159 89.0654 41.7959 89.2054 41.5399 89.2934C41.2879 89.3774 41.0199 89.4174 40.7359 89.4134ZM45.452 91.2254V83.0894H46.736L46.748 84.1214C46.824 83.9854 46.922 83.8514 47.042 83.7194C47.162 83.5834 47.304 83.4594 47.468 83.3474C47.636 83.2314 47.826 83.1394 48.038 83.0714C48.254 83.0034 48.492 82.9694 48.752 82.9694C49.24 82.9694 49.67 83.0834 50.042 83.3114C50.418 83.5354 50.71 83.8814 50.918 84.3494C51.13 84.8134 51.236 85.4034 51.236 86.1194C51.236 86.8394 51.13 87.4434 50.918 87.9314C50.71 88.4194 50.412 88.7894 50.024 89.0414C49.636 89.2894 49.176 89.4134 48.644 89.4134C48.388 89.4134 48.158 89.3774 47.954 89.3054C47.75 89.2334 47.57 89.1394 47.414 89.0234C47.258 88.9034 47.124 88.7754 47.012 88.6394C46.904 88.4994 46.814 88.3614 46.742 88.2254V91.2254H45.452ZM48.374 88.4354C48.85 88.4354 49.24 88.2514 49.544 87.8834C49.852 87.5114 50.006 86.9314 50.006 86.1434C50.006 85.4674 49.864 84.9334 49.58 84.5414C49.3 84.1454 48.898 83.9474 48.374 83.9474C47.834 83.9474 47.426 84.1534 47.15 84.5654C46.874 84.9734 46.736 85.4994 46.736 86.1434C46.736 86.5634 46.796 86.9474 46.916 87.2954C47.04 87.6394 47.224 87.9154 47.468 88.1234C47.712 88.3314 48.014 88.4354 48.374 88.4354ZM54.2922 89.3774C53.9242 89.3774 53.6282 89.3294 53.4042 89.2334C53.1842 89.1374 53.0162 89.0094 52.9002 88.8494C52.7842 88.6854 52.7062 88.5014 52.6662 88.2974C52.6302 88.0894 52.6122 87.8754 52.6122 87.6554V80.3774H53.8782V87.5234C53.8782 87.8114 53.9342 88.0314 54.0462 88.1834C54.1622 88.3354 54.3382 88.4214 54.5742 88.4414L54.8982 88.4534V89.2694C54.7982 89.3014 54.6942 89.3274 54.5862 89.3474C54.4822 89.3674 54.3842 89.3774 54.2922 89.3774ZM58.6947 89.4134C58.1147 89.4134 57.6067 89.2894 57.1707 89.0414C56.7387 88.7894 56.4027 88.4254 56.1627 87.9494C55.9267 87.4734 55.8087 86.8974 55.8087 86.2214C55.8087 85.5694 55.9207 84.9994 56.1447 84.5114C56.3727 84.0234 56.7027 83.6454 57.1347 83.3774C57.5667 83.1054 58.0887 82.9694 58.7007 82.9694C59.2847 82.9694 59.7907 83.0974 60.2187 83.3534C60.6467 83.6054 60.9787 83.9754 61.2147 84.4634C61.4507 84.9474 61.5687 85.5334 61.5687 86.2214C61.5687 86.8494 61.4567 87.4034 61.2327 87.8834C61.0127 88.3634 60.6887 88.7394 60.2607 89.0114C59.8367 89.2794 59.3147 89.4134 58.6947 89.4134ZM58.7007 88.4234C59.0527 88.4234 59.3467 88.3314 59.5827 88.1474C59.8227 87.9594 60.0027 87.6974 60.1227 87.3614C60.2427 87.0214 60.3027 86.6294 60.3027 86.1854C60.3027 85.7734 60.2487 85.3994 60.1407 85.0634C60.0367 84.7234 59.8667 84.4534 59.6307 84.2534C59.3947 84.0534 59.0847 83.9534 58.7007 83.9534C58.3407 83.9534 58.0407 84.0454 57.8007 84.2294C57.5607 84.4094 57.3787 84.6674 57.2547 85.0034C57.1347 85.3354 57.0747 85.7294 57.0747 86.1854C57.0747 86.5894 57.1287 86.9614 57.2367 87.3014C57.3447 87.6414 57.5187 87.9134 57.7587 88.1174C57.9987 88.3214 58.3127 88.4234 58.7007 88.4234ZM64.6178 89.4134C64.2178 89.4134 63.8618 89.3414 63.5498 89.1974C63.2418 89.0534 62.9998 88.8454 62.8238 88.5734C62.6478 88.3014 62.5598 87.9734 62.5598 87.5894C62.5598 86.9014 62.8038 86.3874 63.2918 86.0474C63.7798 85.7074 64.5578 85.5274 65.6258 85.5074L66.6458 85.4774V85.0274C66.6458 84.6714 66.5398 84.3914 66.3278 84.1874C66.1158 83.9834 65.7898 83.8834 65.3498 83.8874C65.0178 83.8874 64.7218 83.9634 64.4618 84.1154C64.2058 84.2674 64.0378 84.5174 63.9578 84.8654H62.8418C62.8658 84.4534 62.9838 84.1074 63.1958 83.8274C63.4118 83.5434 63.7078 83.3294 64.0838 83.1854C64.4598 83.0414 64.9018 82.9694 65.4098 82.9694C65.9738 82.9694 66.4378 83.0474 66.8018 83.2034C67.1658 83.3554 67.4358 83.5794 67.6118 83.8754C67.7918 84.1714 67.8818 84.5314 67.8818 84.9554V89.2934H66.7958L66.6938 88.1534C66.4618 88.6294 66.1678 88.9594 65.8118 89.1434C65.4598 89.3234 65.0618 89.4134 64.6178 89.4134ZM65.0198 88.5194C65.2158 88.5194 65.4098 88.4854 65.6018 88.4174C65.7938 88.3454 65.9678 88.2494 66.1238 88.1294C66.2798 88.0054 66.4038 87.8674 66.4958 87.7154C66.5918 87.5634 66.6418 87.4074 66.6458 87.2474V86.2214L65.8058 86.2394C65.3778 86.2434 65.0138 86.2874 64.7138 86.3714C64.4178 86.4554 64.1898 86.5854 64.0298 86.7614C63.8738 86.9374 63.7958 87.1714 63.7958 87.4634C63.7958 87.7954 63.9118 88.0554 64.1438 88.2434C64.3758 88.4274 64.6678 88.5194 65.0198 88.5194ZM71.9484 89.4134C71.1324 89.4134 70.4904 89.1354 70.0224 88.5794C69.5544 88.0194 69.3204 87.2134 69.3204 86.1614C69.3204 85.5174 69.4144 84.9574 69.6024 84.4814C69.7904 84.0014 70.0704 83.6294 70.4424 83.3654C70.8184 83.1014 71.2824 82.9694 71.8344 82.9694C72.1144 82.9694 72.3624 83.0034 72.5784 83.0714C72.7984 83.1394 72.9904 83.2274 73.1544 83.3354C73.3224 83.4434 73.4604 83.5594 73.5684 83.6834C73.6804 83.8074 73.7664 83.9234 73.8264 84.0314V80.3774H75.1164V89.2934H74.1564L74.0124 88.0214C73.9684 88.1574 73.9004 88.3054 73.8084 88.4654C73.7164 88.6254 73.5904 88.7774 73.4304 88.9214C73.2744 89.0654 73.0744 89.1834 72.8304 89.2754C72.5864 89.3674 72.2924 89.4134 71.9484 89.4134ZM72.1944 88.4474C72.7704 88.4474 73.1864 88.2674 73.4424 87.9074C73.6984 87.5434 73.8264 86.9474 73.8264 86.1194C73.8224 85.6514 73.7644 85.2554 73.6524 84.9314C73.5404 84.6074 73.3664 84.3634 73.1304 84.1994C72.8984 84.0314 72.5924 83.9474 72.2124 83.9474C71.7364 83.9474 71.3484 84.1194 71.0484 84.4634C70.7484 84.8034 70.5984 85.3554 70.5984 86.1194C70.5984 86.8714 70.7344 87.4474 71.0064 87.8474C71.2824 88.2474 71.6784 88.4474 72.1944 88.4474Z" fill="#4B465C"/>
<path d="M18.7621 50.6174C18.7941 50.6174 18.8881 50.6194 19.0441 50.6234C19.2041 50.6234 19.3961 50.6234 19.6201 50.6234C19.8441 50.6194 20.0721 50.6194 20.3041 50.6234C20.5401 50.6234 20.7501 50.6254 20.9341 50.6294C21.9941 50.6454 22.8561 50.8214 23.5201 51.1574C24.1841 51.4934 24.6701 51.9774 24.9781 52.6094C25.2901 53.2374 25.4461 54.0034 25.4461 54.9074C25.4461 55.8474 25.2801 56.6454 24.9481 57.3014C24.6161 57.9534 24.1081 58.4494 23.4241 58.7894C22.7441 59.1254 21.8821 59.2934 20.8381 59.2934H18.7621V50.6174ZM20.0701 51.6974V58.2134H20.8501C21.5061 58.2134 22.0761 58.1074 22.5601 57.8954C23.0481 57.6794 23.4261 57.3314 23.6941 56.8514C23.9621 56.3674 24.0961 55.7214 24.0961 54.9134C24.0961 54.1214 23.9681 53.4914 23.7121 53.0234C23.4561 52.5514 23.0881 52.2134 22.6081 52.0094C22.1321 51.8014 21.5581 51.6974 20.8861 51.6974H20.0701ZM26.9364 59.2934V53.0894H28.1664V54.3614C28.2704 54.0574 28.4144 53.8034 28.5984 53.5994C28.7864 53.3914 29.0044 53.2354 29.2524 53.1314C29.5004 53.0234 29.7624 52.9694 30.0384 52.9694C30.1224 52.9694 30.2024 52.9754 30.2784 52.9874C30.3544 52.9954 30.4144 53.0114 30.4584 53.0354V54.2714C30.4064 54.2474 30.3384 54.2314 30.2544 54.2234C30.1744 54.2154 30.1044 54.2094 30.0444 54.2054C29.7724 54.1854 29.5244 54.1994 29.3004 54.2474C29.0764 54.2954 28.8824 54.3754 28.7184 54.4874C28.5584 54.5994 28.4344 54.7454 28.3464 54.9254C28.2624 55.1054 28.2204 55.3174 28.2204 55.5614V59.2934H26.9364ZM34.0619 59.4134C33.4819 59.4134 32.9739 59.2894 32.5379 59.0414C32.1059 58.7894 31.7699 58.4254 31.5299 57.9494C31.2939 57.4734 31.1759 56.8974 31.1759 56.2214C31.1759 55.5694 31.2879 54.9994 31.5119 54.5114C31.7399 54.0234 32.0699 53.6454 32.5019 53.3774C32.9339 53.1054 33.4559 52.9694 34.0679 52.9694C34.6519 52.9694 35.1579 53.0974 35.5859 53.3534C36.0139 53.6054 36.3459 53.9754 36.5819 54.4634C36.8179 54.9474 36.9359 55.5334 36.9359 56.2214C36.9359 56.8494 36.8239 57.4034 36.5999 57.8834C36.3799 58.3634 36.0559 58.7394 35.6279 59.0114C35.2039 59.2794 34.6819 59.4134 34.0619 59.4134ZM34.0679 58.4234C34.4199 58.4234 34.7139 58.3314 34.9499 58.1474C35.1899 57.9594 35.3699 57.6974 35.4899 57.3614C35.6099 57.0214 35.6699 56.6294 35.6699 56.1854C35.6699 55.7734 35.6159 55.3994 35.5079 55.0634C35.4039 54.7234 35.2339 54.4534 34.9979 54.2534C34.7619 54.0534 34.4519 53.9534 34.0679 53.9534C33.7079 53.9534 33.4079 54.0454 33.1679 54.2294C32.9279 54.4094 32.7459 54.6674 32.6219 55.0034C32.5019 55.3354 32.4419 55.7294 32.4419 56.1854C32.4419 56.5894 32.4959 56.9614 32.6039 57.3014C32.7119 57.6414 32.8859 57.9134 33.1259 58.1174C33.3659 58.3214 33.6799 58.4234 34.0679 58.4234ZM38.3153 61.2254V53.0894H39.5993L39.6113 54.1214C39.6873 53.9854 39.7853 53.8514 39.9053 53.7194C40.0253 53.5834 40.1673 53.4594 40.3313 53.3474C40.4993 53.2314 40.6893 53.1394 40.9013 53.0714C41.1173 53.0034 41.3553 52.9694 41.6153 52.9694C42.1033 52.9694 42.5333 53.0834 42.9053 53.3114C43.2813 53.5354 43.5733 53.8814 43.7813 54.3494C43.9933 54.8134 44.0993 55.4034 44.0993 56.1194C44.0993 56.8394 43.9933 57.4434 43.7813 57.9314C43.5733 58.4194 43.2753 58.7894 42.8873 59.0414C42.4993 59.2894 42.0393 59.4134 41.5073 59.4134C41.2513 59.4134 41.0213 59.3774 40.8173 59.3054C40.6133 59.2334 40.4333 59.1394 40.2773 59.0234C40.1213 58.9034 39.9873 58.7754 39.8753 58.6394C39.7673 58.4994 39.6773 58.3614 39.6053 58.2254V61.2254H38.3153ZM41.2373 58.4354C41.7133 58.4354 42.1033 58.2514 42.4073 57.8834C42.7153 57.5114 42.8693 56.9314 42.8693 56.1434C42.8693 55.4674 42.7273 54.9334 42.4433 54.5414C42.1633 54.1454 41.7613 53.9474 41.2373 53.9474C40.6973 53.9474 40.2893 54.1534 40.0133 54.5654C39.7373 54.9734 39.5993 55.4994 39.5993 56.1434C39.5993 56.5634 39.6593 56.9474 39.7793 57.2954C39.9033 57.6394 40.0873 57.9154 40.3313 58.1234C40.5753 58.3314 40.8773 58.4354 41.2373 58.4354ZM49.4682 53.0894V59.2934H48.2322V53.0894H49.4682ZM49.4922 50.6234V51.8894H48.2022V50.6234H49.4922ZM51.3817 59.2934V53.0894H52.6297V53.9834C52.8057 53.7114 53.0457 53.4754 53.3497 53.2754C53.6537 53.0714 54.0457 52.9694 54.5257 52.9694C54.7497 52.9694 54.9757 53.0074 55.2037 53.0834C55.4357 53.1594 55.6477 53.2734 55.8397 53.4254C56.0357 53.5734 56.1897 53.7574 56.3017 53.9774C56.4977 53.6814 56.7597 53.4394 57.0877 53.2514C57.4157 53.0634 57.7837 52.9694 58.1917 52.9694C58.4117 52.9694 58.6397 53.0054 58.8757 53.0774C59.1117 53.1454 59.3297 53.2634 59.5297 53.4314C59.7337 53.5954 59.8977 53.8234 60.0217 54.1154C60.1497 54.4074 60.2137 54.7774 60.2137 55.2254V59.2934H58.9237V55.3634C58.9237 55.0234 58.8657 54.7574 58.7497 54.5654C58.6377 54.3734 58.4897 54.2394 58.3057 54.1634C58.1257 54.0834 57.9337 54.0434 57.7297 54.0434C57.5457 54.0434 57.3537 54.0794 57.1537 54.1514C56.9537 54.2234 56.7837 54.3434 56.6437 54.5114C56.5037 54.6794 56.4337 54.9074 56.4337 55.1954V59.2934H55.1497V55.0874C55.1497 54.8594 55.0877 54.6674 54.9637 54.5114C54.8437 54.3554 54.6917 54.2394 54.5077 54.1634C54.3277 54.0834 54.1477 54.0434 53.9677 54.0434C53.7677 54.0434 53.5677 54.0834 53.3677 54.1634C53.1677 54.2434 52.9997 54.3694 52.8637 54.5414C52.7317 54.7094 52.6657 54.9274 52.6657 55.1954V59.2934H51.3817ZM63.5748 59.4134C63.1748 59.4134 62.8188 59.3414 62.5068 59.1974C62.1988 59.0534 61.9568 58.8454 61.7808 58.5734C61.6048 58.3014 61.5168 57.9734 61.5168 57.5894C61.5168 56.9014 61.7608 56.3874 62.2488 56.0474C62.7368 55.7074 63.5148 55.5274 64.5828 55.5074L65.6028 55.4774V55.0274C65.6028 54.6714 65.4968 54.3914 65.2848 54.1874C65.0728 53.9834 64.7468 53.8834 64.3068 53.8874C63.9748 53.8874 63.6788 53.9634 63.4188 54.1154C63.1628 54.2674 62.9948 54.5174 62.9148 54.8654H61.7988C61.8228 54.4534 61.9408 54.1074 62.1528 53.8274C62.3688 53.5434 62.6648 53.3294 63.0408 53.1854C63.4168 53.0414 63.8588 52.9694 64.3668 52.9694C64.9308 52.9694 65.3948 53.0474 65.7588 53.2034C66.1228 53.3554 66.3928 53.5794 66.5688 53.8754C66.7488 54.1714 66.8388 54.5314 66.8388 54.9554V59.2934H65.7528L65.6508 58.1534C65.4188 58.6294 65.1248 58.9594 64.7688 59.1434C64.4168 59.3234 64.0188 59.4134 63.5748 59.4134ZM63.9768 58.5194C64.1728 58.5194 64.3668 58.4854 64.5588 58.4174C64.7508 58.3454 64.9248 58.2494 65.0808 58.1294C65.2368 58.0054 65.3608 57.8674 65.4528 57.7154C65.5488 57.5634 65.5988 57.4074 65.6028 57.2474V56.2214L64.7628 56.2394C64.3348 56.2434 63.9708 56.2874 63.6708 56.3714C63.3748 56.4554 63.1468 56.5854 62.9868 56.7614C62.8308 56.9374 62.7528 57.1714 62.7528 57.4634C62.7528 57.7954 62.8688 58.0554 63.1008 58.2434C63.3328 58.4274 63.6248 58.5194 63.9768 58.5194ZM71.3314 61.3454C70.3234 61.3454 69.5434 61.2034 68.9914 60.9194C68.4394 60.6394 68.1634 60.2474 68.1634 59.7434C68.1634 59.5234 68.2154 59.3374 68.3194 59.1854C68.4274 59.0294 68.5534 58.9014 68.6974 58.8014C68.8454 58.7014 68.9814 58.6234 69.1054 58.5674C69.2294 58.5074 69.3094 58.4654 69.3454 58.4414C69.2774 58.4014 69.1894 58.3514 69.0814 58.2914C68.9774 58.2274 68.8834 58.1434 68.7994 58.0394C68.7154 57.9314 68.6734 57.7914 68.6734 57.6194C68.6734 57.4194 68.7674 57.2354 68.9554 57.0674C69.1474 56.8954 69.4334 56.7694 69.8134 56.6894C69.4374 56.5054 69.1454 56.2574 68.9374 55.9454C68.7334 55.6334 68.6314 55.3014 68.6314 54.9494C68.6314 54.5454 68.7454 54.1974 68.9734 53.9054C69.2014 53.6094 69.5214 53.3834 69.9334 53.2274C70.3494 53.0714 70.8374 52.9934 71.3974 52.9934C71.8054 52.9934 72.1474 53.0394 72.4234 53.1314C72.6994 53.2234 72.9534 53.3514 73.1854 53.5154C73.2614 53.4874 73.3694 53.4454 73.5094 53.3894C73.6494 53.3294 73.8034 53.2654 73.9714 53.1974C74.1434 53.1294 74.3054 53.0634 74.4574 52.9994C74.6134 52.9354 74.7394 52.8834 74.8354 52.8434L74.8294 53.9594L73.7494 54.1574C73.8054 54.2774 73.8494 54.4094 73.8814 54.5534C73.9174 54.6974 73.9354 54.8294 73.9354 54.9494C73.9354 55.3094 73.8374 55.6414 73.6414 55.9454C73.4454 56.2454 73.1514 56.4854 72.7594 56.6654C72.3674 56.8454 71.8774 56.9354 71.2894 56.9354C71.2334 56.9354 71.1614 56.9354 71.0734 56.9354C70.9854 56.9314 70.9114 56.9254 70.8514 56.9174C70.4794 56.9294 70.2234 56.9734 70.0834 57.0494C69.9434 57.1214 69.8734 57.2014 69.8734 57.2894C69.8734 57.4014 69.9634 57.4774 70.1434 57.5174C70.3234 57.5574 70.6194 57.5914 71.0314 57.6194C71.1794 57.6314 71.3674 57.6434 71.5954 57.6554C71.8274 57.6674 72.0834 57.6834 72.3634 57.7034C73.0434 57.7434 73.5614 57.9134 73.9174 58.2134C74.2774 58.5134 74.4574 58.9114 74.4574 59.4074C74.4574 59.9754 74.1994 60.4394 73.6834 60.7994C73.1674 61.1634 72.3834 61.3454 71.3314 61.3454ZM71.5534 60.5594C72.1014 60.5594 72.5134 60.4794 72.7894 60.3194C73.0694 60.1634 73.2094 59.9294 73.2094 59.6174C73.2094 59.3854 73.1194 59.1954 72.9394 59.0474C72.7594 58.8994 72.4914 58.8134 72.1354 58.7894L70.4794 58.6814C70.3154 58.6734 70.1514 58.7094 69.9874 58.7894C69.8274 58.8694 69.6934 58.9814 69.5854 59.1254C69.4814 59.2654 69.4294 59.4214 69.4294 59.5934C69.4294 59.9054 69.6014 60.1434 69.9454 60.3074C70.2934 60.4754 70.8294 60.5594 71.5534 60.5594ZM71.3254 56.1494C71.7414 56.1494 72.0754 56.0494 72.3274 55.8494C72.5834 55.6454 72.7114 55.3534 72.7114 54.9734C72.7114 54.5814 72.5834 54.2794 72.3274 54.0674C72.0754 53.8514 71.7414 53.7434 71.3254 53.7434C70.9054 53.7434 70.5654 53.8514 70.3054 54.0674C70.0494 54.2834 69.9214 54.5854 69.9214 54.9734C69.9214 55.3414 70.0434 55.6294 70.2874 55.8374C70.5354 56.0454 70.8814 56.1494 71.3254 56.1494ZM76.9045 56.4914C76.9045 56.8634 76.9645 57.1974 77.0845 57.4934C77.2085 57.7854 77.3945 58.0174 77.6425 58.1894C77.8905 58.3574 78.1985 58.4414 78.5665 58.4414C78.9345 58.4414 79.2525 58.3574 79.5205 58.1894C79.7925 58.0214 79.9705 57.7714 80.0545 57.4394H81.2425C81.1705 57.8634 81.0005 58.2234 80.7325 58.5194C80.4685 58.8154 80.1485 59.0394 79.7725 59.1914C79.3965 59.3394 79.0025 59.4134 78.5905 59.4134C78.0025 59.4134 77.4845 59.2874 77.0365 59.0354C76.5885 58.7794 76.2385 58.4154 75.9865 57.9434C75.7385 57.4714 75.6145 56.9094 75.6145 56.2574C75.6145 55.6134 75.7285 55.0454 75.9565 54.5534C76.1845 54.0574 76.5145 53.6694 76.9465 53.3894C77.3785 53.1094 77.8985 52.9694 78.5065 52.9694C79.1065 52.9694 79.6105 53.0974 80.0185 53.3534C80.4305 53.6094 80.7425 53.9694 80.9545 54.4334C81.1665 54.8934 81.2725 55.4374 81.2725 56.0654V56.4914H76.9045ZM76.9045 55.6574H80.0485C80.0485 55.3334 79.9925 55.0394 79.8805 54.7754C79.7685 54.5074 79.5965 54.2974 79.3645 54.1454C79.1365 53.9894 78.8485 53.9114 78.5005 53.9114C78.1445 53.9114 77.8485 53.9974 77.6125 54.1694C77.3765 54.3414 77.1985 54.5614 77.0785 54.8294C76.9625 55.0974 76.9045 55.3734 76.9045 55.6574ZM16.4423 74.2934V65.3774H17.7083V68.9954C17.8083 68.8314 17.9423 68.6754 18.1103 68.5274C18.2823 68.3794 18.4903 68.2594 18.7343 68.1674C18.9823 68.0714 19.2703 68.0234 19.5983 68.0234C20.0023 68.0234 20.3663 68.0994 20.6903 68.2514C21.0183 68.3994 21.2783 68.6154 21.4703 68.8994C21.6663 69.1794 21.7643 69.5134 21.7643 69.9014V74.2934H20.4803V70.1354C20.4803 69.7874 20.3603 69.5194 20.1203 69.3314C19.8803 69.1434 19.5723 69.0494 19.1963 69.0494C18.9443 69.0494 18.7043 69.0934 18.4763 69.1814C18.2523 69.2654 18.0703 69.3934 17.9303 69.5654C17.7943 69.7334 17.7263 69.9454 17.7263 70.2014V74.2934H16.4423ZM24.3869 71.4914C24.3869 71.8634 24.4469 72.1974 24.5669 72.4934C24.6909 72.7854 24.8769 73.0174 25.1249 73.1894C25.3729 73.3574 25.6809 73.4414 26.0489 73.4414C26.4169 73.4414 26.7349 73.3574 27.0029 73.1894C27.2749 73.0214 27.4529 72.7714 27.5369 72.4394H28.7249C28.6529 72.8634 28.4829 73.2234 28.2149 73.5194C27.9509 73.8154 27.6309 74.0394 27.2549 74.1914C26.8789 74.3394 26.4849 74.4134 26.0729 74.4134C25.4849 74.4134 24.9669 74.2874 24.5189 74.0354C24.0709 73.7794 23.7209 73.4154 23.4689 72.9434C23.2209 72.4714 23.0969 71.9094 23.0969 71.2574C23.0969 70.6134 23.2109 70.0454 23.4389 69.5534C23.6669 69.0574 23.9969 68.6694 24.4289 68.3894C24.8609 68.1094 25.3809 67.9694 25.9889 67.9694C26.5889 67.9694 27.0929 68.0974 27.5009 68.3534C27.9129 68.6094 28.2249 68.9694 28.4369 69.4334C28.6489 69.8934 28.7549 70.4374 28.7549 71.0654V71.4914H24.3869ZM24.3869 70.6574H27.5309C27.5309 70.3334 27.4749 70.0394 27.3629 69.7754C27.2509 69.5074 27.0789 69.2974 26.8469 69.1454C26.6189 68.9894 26.3309 68.9114 25.9829 68.9114C25.6269 68.9114 25.3309 68.9974 25.0949 69.1694C24.8589 69.3414 24.6809 69.5614 24.5609 69.8294C24.4449 70.0974 24.3869 70.3734 24.3869 70.6574ZM30.1884 74.2934V68.0894H31.4184V69.3614C31.5224 69.0574 31.6664 68.8034 31.8504 68.5994C32.0384 68.3914 32.2564 68.2354 32.5044 68.1314C32.7524 68.0234 33.0144 67.9694 33.2904 67.9694C33.3744 67.9694 33.4544 67.9754 33.5304 67.9874C33.6064 67.9954 33.6664 68.0114 33.7104 68.0354V69.2714C33.6584 69.2474 33.5904 69.2314 33.5064 69.2234C33.4264 69.2154 33.3564 69.2094 33.2964 69.2054C33.0244 69.1854 32.7764 69.1994 32.5524 69.2474C32.3284 69.2954 32.1344 69.3754 31.9704 69.4874C31.8104 69.5994 31.6864 69.7454 31.5984 69.9254C31.5144 70.1054 31.4724 70.3174 31.4724 70.5614V74.2934H30.1884ZM35.7658 71.4914C35.7658 71.8634 35.8258 72.1974 35.9458 72.4934C36.0698 72.7854 36.2558 73.0174 36.5038 73.1894C36.7518 73.3574 37.0598 73.4414 37.4278 73.4414C37.7958 73.4414 38.1138 73.3574 38.3818 73.1894C38.6538 73.0214 38.8318 72.7714 38.9158 72.4394H40.1038C40.0318 72.8634 39.8618 73.2234 39.5938 73.5194C39.3298 73.8154 39.0098 74.0394 38.6338 74.1914C38.2578 74.3394 37.8638 74.4134 37.4518 74.4134C36.8638 74.4134 36.3458 74.2874 35.8978 74.0354C35.4498 73.7794 35.0998 73.4154 34.8478 72.9434C34.5998 72.4714 34.4758 71.9094 34.4758 71.2574C34.4758 70.6134 34.5898 70.0454 34.8178 69.5534C35.0458 69.0574 35.3758 68.6694 35.8078 68.3894C36.2398 68.1094 36.7598 67.9694 37.3678 67.9694C37.9678 67.9694 38.4718 68.0974 38.8798 68.3534C39.2918 68.6094 39.6038 68.9694 39.8158 69.4334C40.0278 69.8934 40.1338 70.4374 40.1338 71.0654V71.4914H35.7658ZM35.7658 70.6574H38.9098C38.9098 70.3334 38.8538 70.0394 38.7418 69.7754C38.6298 69.5074 38.4578 69.2974 38.2258 69.1454C37.9978 68.9894 37.7098 68.9114 37.3618 68.9114C37.0058 68.9114 36.7098 68.9974 36.4738 69.1694C36.2378 69.3414 36.0598 69.5614 35.9398 69.8294C35.8238 70.0974 35.7658 70.3734 35.7658 70.6574ZM46.5951 74.4134C46.0151 74.4134 45.5071 74.2894 45.0711 74.0414C44.6391 73.7894 44.3031 73.4254 44.0631 72.9494C43.8271 72.4734 43.7091 71.8974 43.7091 71.2214C43.7091 70.5694 43.8211 69.9994 44.0451 69.5114C44.2731 69.0234 44.6031 68.6454 45.0351 68.3774C45.4671 68.1054 45.9891 67.9694 46.6011 67.9694C47.1851 67.9694 47.6911 68.0974 48.1191 68.3534C48.5471 68.6054 48.8791 68.9754 49.1151 69.4634C49.3511 69.9474 49.4691 70.5334 49.4691 71.2214C49.4691 71.8494 49.3571 72.4034 49.1331 72.8834C48.9131 73.3634 48.5891 73.7394 48.1611 74.0114C47.7371 74.2794 47.2151 74.4134 46.5951 74.4134ZM46.6011 73.4234C46.9531 73.4234 47.2471 73.3314 47.4831 73.1474C47.7231 72.9594 47.9031 72.6974 48.0231 72.3614C48.1431 72.0214 48.2031 71.6294 48.2031 71.1854C48.2031 70.7734 48.1491 70.3994 48.0411 70.0634C47.9371 69.7234 47.7671 69.4534 47.5311 69.2534C47.2951 69.0534 46.9851 68.9534 46.6011 68.9534C46.2411 68.9534 45.9411 69.0454 45.7011 69.2294C45.4611 69.4094 45.2791 69.6674 45.1551 70.0034C45.0351 70.3354 44.9751 70.7294 44.9751 71.1854C44.9751 71.5894 45.0291 71.9614 45.1371 72.3014C45.2451 72.6414 45.4191 72.9134 45.6591 73.1174C45.8991 73.3214 46.2131 73.4234 46.6011 73.4234ZM50.8485 74.2934V68.0894H52.0785V69.3614C52.1825 69.0574 52.3265 68.8034 52.5105 68.5994C52.6985 68.3914 52.9165 68.2354 53.1645 68.1314C53.4125 68.0234 53.6745 67.9694 53.9505 67.9694C54.0345 67.9694 54.1145 67.9754 54.1905 67.9874C54.2665 67.9954 54.3265 68.0114 54.3705 68.0354V69.2714C54.3185 69.2474 54.2505 69.2314 54.1665 69.2234C54.0865 69.2154 54.0165 69.2094 53.9565 69.2054C53.6845 69.1854 53.4365 69.1994 53.2125 69.2474C52.9885 69.2954 52.7945 69.3754 52.6305 69.4874C52.4705 69.5994 52.3465 69.7454 52.2585 69.9254C52.1745 70.1054 52.1325 70.3174 52.1325 70.5614V74.2934H50.8485ZM60.6636 67.9694C61.1276 67.9694 61.5396 68.0614 61.8996 68.2454C62.2636 68.4254 62.5576 68.6774 62.7816 69.0014C63.0056 69.3254 63.1416 69.7034 63.1896 70.1354H62.0796C62.0436 69.9314 61.9656 69.7414 61.8456 69.5654C61.7296 69.3894 61.5716 69.2494 61.3716 69.1454C61.1756 69.0374 60.9416 68.9834 60.6696 68.9834C60.1736 68.9834 59.7696 69.1654 59.4576 69.5294C59.1456 69.8934 58.9896 70.4514 58.9896 71.2034C58.9896 71.8914 59.1336 72.4394 59.4216 72.8474C59.7136 73.2554 60.1376 73.4594 60.6936 73.4594C60.9616 73.4594 61.1936 73.4034 61.3896 73.2914C61.5896 73.1794 61.7476 73.0354 61.8636 72.8594C61.9796 72.6834 62.0536 72.5014 62.0856 72.3134H63.1776C63.1336 72.7294 62.9976 73.0954 62.7696 73.4114C62.5456 73.7274 62.2516 73.9734 61.8876 74.1494C61.5276 74.3254 61.1196 74.4134 60.6636 74.4134C60.0996 74.4134 59.5996 74.2914 59.1636 74.0474C58.7276 73.7994 58.3856 73.4374 58.1376 72.9614C57.8936 72.4814 57.7716 71.8994 57.7716 71.2154C57.7716 70.5714 57.8856 70.0054 58.1136 69.5174C58.3416 69.0294 58.6716 68.6494 59.1036 68.3774C59.5396 68.1054 60.0596 67.9694 60.6636 67.9694ZM66.2863 74.3774C65.9183 74.3774 65.6223 74.3294 65.3983 74.2334C65.1783 74.1374 65.0103 74.0094 64.8943 73.8494C64.7783 73.6854 64.7003 73.5014 64.6603 73.2974C64.6243 73.0894 64.6063 72.8754 64.6063 72.6554V65.3774H65.8723V72.5234C65.8723 72.8114 65.9283 73.0314 66.0403 73.1834C66.1563 73.3354 66.3323 73.4214 66.5683 73.4414L66.8923 73.4534V74.2694C66.7923 74.3014 66.6883 74.3274 66.5803 74.3474C66.4763 74.3674 66.3783 74.3774 66.2863 74.3774ZM69.5951 68.0894V74.2934H68.3591V68.0894H69.5951ZM69.6191 65.6234V66.8894H68.3291V65.6234H69.6191ZM73.9644 67.9694C74.4284 67.9694 74.8404 68.0614 75.2004 68.2454C75.5644 68.4254 75.8584 68.6774 76.0824 69.0014C76.3064 69.3254 76.4424 69.7034 76.4904 70.1354H75.3804C75.3444 69.9314 75.2664 69.7414 75.1464 69.5654C75.0304 69.3894 74.8724 69.2494 74.6724 69.1454C74.4764 69.0374 74.2424 68.9834 73.9704 68.9834C73.4744 68.9834 73.0704 69.1654 72.7584 69.5294C72.4464 69.8934 72.2904 70.4514 72.2904 71.2034C72.2904 71.8914 72.4344 72.4394 72.7224 72.8474C73.0144 73.2554 73.4384 73.4594 73.9944 73.4594C74.2624 73.4594 74.4944 73.4034 74.6904 73.2914C74.8904 73.1794 75.0484 73.0354 75.1644 72.8594C75.2804 72.6834 75.3544 72.5014 75.3864 72.3134H76.4784C76.4344 72.7294 76.2984 73.0954 76.0704 73.4114C75.8464 73.7274 75.5524 73.9734 75.1884 74.1494C74.8284 74.3254 74.4204 74.4134 73.9644 74.4134C73.4004 74.4134 72.9004 74.2914 72.4644 74.0474C72.0284 73.7994 71.6864 73.4374 71.4384 72.9614C71.1944 72.4814 71.0724 71.8994 71.0724 71.2154C71.0724 70.5714 71.1864 70.0054 71.4144 69.5174C71.6424 69.0294 71.9724 68.6494 72.4044 68.3774C72.8404 68.1054 73.3604 67.9694 73.9644 67.9694ZM83.5051 74.2934H82.1731L80.3071 71.2994L79.1911 72.4574V74.2934H77.9071V65.3774H79.1911V71.0474L81.9331 68.0894H83.3731L81.1291 70.4834L83.5051 74.2934ZM27.6954 84.0134H26.3034L26.3094 87.7154C26.3094 87.9194 26.3294 88.0694 26.3694 88.1654C26.4134 88.2574 26.4854 88.3174 26.5854 88.3454C26.6894 88.3694 26.8294 88.3814 27.0054 88.3814H27.7314V89.2154C27.6514 89.2474 27.5314 89.2754 27.3714 89.2994C27.2154 89.3234 27.0134 89.3354 26.7654 89.3354C26.3054 89.3354 25.9474 89.2734 25.6914 89.1494C25.4394 89.0254 25.2634 88.8474 25.1634 88.6154C25.0674 88.3794 25.0194 88.0954 25.0194 87.7634V84.0134H24.0114V83.0894H25.0554L25.3734 81.2654H26.3034V83.0834H27.6954V84.0134ZM31.5658 89.4134C30.9858 89.4134 30.4778 89.2894 30.0418 89.0414C29.6098 88.7894 29.2738 88.4254 29.0338 87.9494C28.7978 87.4734 28.6798 86.8974 28.6798 86.2214C28.6798 85.5694 28.7918 84.9994 29.0158 84.5114C29.2438 84.0234 29.5738 83.6454 30.0058 83.3774C30.4378 83.1054 30.9598 82.9694 31.5718 82.9694C32.1558 82.9694 32.6618 83.0974 33.0898 83.3534C33.5178 83.6054 33.8498 83.9754 34.0858 84.4634C34.3218 84.9474 34.4398 85.5334 34.4398 86.2214C34.4398 86.8494 34.3278 87.4034 34.1038 87.8834C33.8838 88.3634 33.5598 88.7394 33.1318 89.0114C32.7078 89.2794 32.1858 89.4134 31.5658 89.4134ZM31.5718 88.4234C31.9238 88.4234 32.2178 88.3314 32.4538 88.1474C32.6938 87.9594 32.8738 87.6974 32.9938 87.3614C33.1138 87.0214 33.1738 86.6294 33.1738 86.1854C33.1738 85.7734 33.1198 85.3994 33.0118 85.0634C32.9078 84.7234 32.7378 84.4534 32.5018 84.2534C32.2658 84.0534 31.9558 83.9534 31.5718 83.9534C31.2118 83.9534 30.9118 84.0454 30.6718 84.2294C30.4318 84.4094 30.2498 84.6674 30.1258 85.0034C30.0058 85.3354 29.9458 85.7294 29.9458 86.1854C29.9458 86.5894 29.9998 86.9614 30.1078 87.3014C30.2158 87.6414 30.3898 87.9134 30.6298 88.1174C30.8698 88.3214 31.1838 88.4234 31.5718 88.4234ZM40.7359 89.4134C40.4239 89.4094 40.1259 89.3634 39.8419 89.2754C39.5579 89.1874 39.3039 89.0554 39.0799 88.8794C38.8599 88.7034 38.6839 88.4854 38.5519 88.2254C38.4239 87.9654 38.3599 87.6634 38.3599 87.3194V83.0894H39.6499V87.1814C39.6499 87.5534 39.7659 87.8554 39.9979 88.0874C40.2299 88.3194 40.5799 88.4354 41.0479 88.4354C41.4719 88.4354 41.8119 88.3254 42.0679 88.1054C42.3239 87.8814 42.4519 87.5554 42.4519 87.1274V83.0894H43.7299V89.2934H42.7339L42.5899 88.0934C42.5179 88.4174 42.3879 88.6774 42.1999 88.8734C42.0159 89.0654 41.7959 89.2054 41.5399 89.2934C41.2879 89.3774 41.0199 89.4174 40.7359 89.4134ZM45.452 91.2254V83.0894H46.736L46.748 84.1214C46.824 83.9854 46.922 83.8514 47.042 83.7194C47.162 83.5834 47.304 83.4594 47.468 83.3474C47.636 83.2314 47.826 83.1394 48.038 83.0714C48.254 83.0034 48.492 82.9694 48.752 82.9694C49.24 82.9694 49.67 83.0834 50.042 83.3114C50.418 83.5354 50.71 83.8814 50.918 84.3494C51.13 84.8134 51.236 85.4034 51.236 86.1194C51.236 86.8394 51.13 87.4434 50.918 87.9314C50.71 88.4194 50.412 88.7894 50.024 89.0414C49.636 89.2894 49.176 89.4134 48.644 89.4134C48.388 89.4134 48.158 89.3774 47.954 89.3054C47.75 89.2334 47.57 89.1394 47.414 89.0234C47.258 88.9034 47.124 88.7754 47.012 88.6394C46.904 88.4994 46.814 88.3614 46.742 88.2254V91.2254H45.452ZM48.374 88.4354C48.85 88.4354 49.24 88.2514 49.544 87.8834C49.852 87.5114 50.006 86.9314 50.006 86.1434C50.006 85.4674 49.864 84.9334 49.58 84.5414C49.3 84.1454 48.898 83.9474 48.374 83.9474C47.834 83.9474 47.426 84.1534 47.15 84.5654C46.874 84.9734 46.736 85.4994 46.736 86.1434C46.736 86.5634 46.796 86.9474 46.916 87.2954C47.04 87.6394 47.224 87.9154 47.468 88.1234C47.712 88.3314 48.014 88.4354 48.374 88.4354ZM54.2922 89.3774C53.9242 89.3774 53.6282 89.3294 53.4042 89.2334C53.1842 89.1374 53.0162 89.0094 52.9002 88.8494C52.7842 88.6854 52.7062 88.5014 52.6662 88.2974C52.6302 88.0894 52.6122 87.8754 52.6122 87.6554V80.3774H53.8782V87.5234C53.8782 87.8114 53.9342 88.0314 54.0462 88.1834C54.1622 88.3354 54.3382 88.4214 54.5742 88.4414L54.8982 88.4534V89.2694C54.7982 89.3014 54.6942 89.3274 54.5862 89.3474C54.4822 89.3674 54.3842 89.3774 54.2922 89.3774ZM58.6947 89.4134C58.1147 89.4134 57.6067 89.2894 57.1707 89.0414C56.7387 88.7894 56.4027 88.4254 56.1627 87.9494C55.9267 87.4734 55.8087 86.8974 55.8087 86.2214C55.8087 85.5694 55.9207 84.9994 56.1447 84.5114C56.3727 84.0234 56.7027 83.6454 57.1347 83.3774C57.5667 83.1054 58.0887 82.9694 58.7007 82.9694C59.2847 82.9694 59.7907 83.0974 60.2187 83.3534C60.6467 83.6054 60.9787 83.9754 61.2147 84.4634C61.4507 84.9474 61.5687 85.5334 61.5687 86.2214C61.5687 86.8494 61.4567 87.4034 61.2327 87.8834C61.0127 88.3634 60.6887 88.7394 60.2607 89.0114C59.8367 89.2794 59.3147 89.4134 58.6947 89.4134ZM58.7007 88.4234C59.0527 88.4234 59.3467 88.3314 59.5827 88.1474C59.8227 87.9594 60.0027 87.6974 60.1227 87.3614C60.2427 87.0214 60.3027 86.6294 60.3027 86.1854C60.3027 85.7734 60.2487 85.3994 60.1407 85.0634C60.0367 84.7234 59.8667 84.4534 59.6307 84.2534C59.3947 84.0534 59.0847 83.9534 58.7007 83.9534C58.3407 83.9534 58.0407 84.0454 57.8007 84.2294C57.5607 84.4094 57.3787 84.6674 57.2547 85.0034C57.1347 85.3354 57.0747 85.7294 57.0747 86.1854C57.0747 86.5894 57.1287 86.9614 57.2367 87.3014C57.3447 87.6414 57.5187 87.9134 57.7587 88.1174C57.9987 88.3214 58.3127 88.4234 58.7007 88.4234ZM64.6178 89.4134C64.2178 89.4134 63.8618 89.3414 63.5498 89.1974C63.2418 89.0534 62.9998 88.8454 62.8238 88.5734C62.6478 88.3014 62.5598 87.9734 62.5598 87.5894C62.5598 86.9014 62.8038 86.3874 63.2918 86.0474C63.7798 85.7074 64.5578 85.5274 65.6258 85.5074L66.6458 85.4774V85.0274C66.6458 84.6714 66.5398 84.3914 66.3278 84.1874C66.1158 83.9834 65.7898 83.8834 65.3498 83.8874C65.0178 83.8874 64.7218 83.9634 64.4618 84.1154C64.2058 84.2674 64.0378 84.5174 63.9578 84.8654H62.8418C62.8658 84.4534 62.9838 84.1074 63.1958 83.8274C63.4118 83.5434 63.7078 83.3294 64.0838 83.1854C64.4598 83.0414 64.9018 82.9694 65.4098 82.9694C65.9738 82.9694 66.4378 83.0474 66.8018 83.2034C67.1658 83.3554 67.4358 83.5794 67.6118 83.8754C67.7918 84.1714 67.8818 84.5314 67.8818 84.9554V89.2934H66.7958L66.6938 88.1534C66.4618 88.6294 66.1678 88.9594 65.8118 89.1434C65.4598 89.3234 65.0618 89.4134 64.6178 89.4134ZM65.0198 88.5194C65.2158 88.5194 65.4098 88.4854 65.6018 88.4174C65.7938 88.3454 65.9678 88.2494 66.1238 88.1294C66.2798 88.0054 66.4038 87.8674 66.4958 87.7154C66.5918 87.5634 66.6418 87.4074 66.6458 87.2474V86.2214L65.8058 86.2394C65.3778 86.2434 65.0138 86.2874 64.7138 86.3714C64.4178 86.4554 64.1898 86.5854 64.0298 86.7614C63.8738 86.9374 63.7958 87.1714 63.7958 87.4634C63.7958 87.7954 63.9118 88.0554 64.1438 88.2434C64.3758 88.4274 64.6678 88.5194 65.0198 88.5194ZM71.9484 89.4134C71.1324 89.4134 70.4904 89.1354 70.0224 88.5794C69.5544 88.0194 69.3204 87.2134 69.3204 86.1614C69.3204 85.5174 69.4144 84.9574 69.6024 84.4814C69.7904 84.0014 70.0704 83.6294 70.4424 83.3654C70.8184 83.1014 71.2824 82.9694 71.8344 82.9694C72.1144 82.9694 72.3624 83.0034 72.5784 83.0714C72.7984 83.1394 72.9904 83.2274 73.1544 83.3354C73.3224 83.4434 73.4604 83.5594 73.5684 83.6834C73.6804 83.8074 73.7664 83.9234 73.8264 84.0314V80.3774H75.1164V89.2934H74.1564L74.0124 88.0214C73.9684 88.1574 73.9004 88.3054 73.8084 88.4654C73.7164 88.6254 73.5904 88.7774 73.4304 88.9214C73.2744 89.0654 73.0744 89.1834 72.8304 89.2754C72.5864 89.3674 72.2924 89.4134 71.9484 89.4134ZM72.1944 88.4474C72.7704 88.4474 73.1864 88.2674 73.4424 87.9074C73.6984 87.5434 73.8264 86.9474 73.8264 86.1194C73.8224 85.6514 73.7644 85.2554 73.6524 84.9314C73.5404 84.6074 73.3664 84.3634 73.1304 84.1994C72.8984 84.0314 72.5924 83.9474 72.2124 83.9474C71.7364 83.9474 71.3484 84.1194 71.0484 84.4634C70.7484 84.8034 70.5984 85.3554 70.5984 86.1194C70.5984 86.8714 70.7344 87.4474 71.0064 87.8474C71.2824 88.2474 71.6784 88.4474 72.1944 88.4474Z" fill="white" fill-opacity="0.1"/>
<rect x="35" y="14" width="30" height="30" rx="3.75" fill="#4B465C" fill-opacity="0.08"/>
<path d="M44.166 32.6458V34.1041C44.166 34.9095 44.8189 35.5624 45.6243 35.5624H54.3744C55.1798 35.5624 55.8327 34.9095 55.8327 34.1041V32.6458" stroke="#4B465C" stroke-width="0.9375" stroke-linecap="round" stroke-linejoin="round"/>
<path d="M44.166 32.6458V34.1041C44.166 34.9095 44.8189 35.5624 45.6243 35.5624H54.3744C55.1798 35.5624 55.8327 34.9095 55.8327 34.1041V32.6458" stroke="white" stroke-opacity="0.1" stroke-width="0.9375" stroke-linecap="round" stroke-linejoin="round"/>
<path d="M46.3535 26.8126L49.9993 23.1667L53.6452 26.8126" stroke="#4B465C" stroke-width="0.9375" stroke-linecap="round" stroke-linejoin="round"/>
<path d="M46.3535 26.8126L49.9993 23.1667L53.6452 26.8126" stroke="white" stroke-opacity="0.1" stroke-width="0.9375" stroke-linecap="round" stroke-linejoin="round"/>
<path d="M49.9993 23.1667V31.9167" stroke="#4B465C" stroke-width="0.9375" stroke-linecap="round" stroke-linejoin="round"/>
<path d="M49.9993 23.1667V31.9167" stroke="white" stroke-opacity="0.2" stroke-width="0.9375" stroke-linecap="round" stroke-linejoin="round"/>
</svg>
