<svg width="68" height="20" viewBox="0 0 68 20" fill="none" xmlns="http://www.w3.org/2000/svg">
<path d="M0.355957 19V1.15332H3.27344V16.4976H10.8296V19H0.355957ZM29.7505 10.0522C29.7505 12.9575 29.0221 15.2158 27.5654 16.8271C26.1169 18.4385 24.062 19.2441 21.4009 19.2441C18.7072 19.2441 16.6361 18.4466 15.1875 16.8516C13.7471 15.2484 13.0269 12.9738 13.0269 10.0278C13.0269 7.08187 13.7511 4.8195 15.1997 3.24072C16.6564 1.66195 18.7316 0.872559 21.4253 0.872559C24.0783 0.872559 26.1291 1.67415 27.5776 3.27734C29.0262 4.88053 29.7505 7.13883 29.7505 10.0522ZM16.1274 10.0522C16.1274 12.2495 16.571 13.9178 17.458 15.0571C18.3451 16.1883 19.6593 16.7539 21.4009 16.7539C23.1343 16.7539 24.4404 16.1924 25.3193 15.0693C26.2064 13.9463 26.6499 12.2739 26.6499 10.0522C26.6499 7.86312 26.2104 6.20296 25.3315 5.07178C24.4608 3.94059 23.1587 3.375 21.4253 3.375C19.6756 3.375 18.3532 3.94059 17.458 5.07178C16.571 6.20296 16.1274 7.86312 16.1274 10.0522ZM40.8833 9.31982H47.4507V18.2798C46.3765 18.6297 45.3429 18.8779 44.3501 19.0244C43.3654 19.1709 42.2993 19.2441 41.1519 19.2441C38.45 19.2441 36.3667 18.4466 34.9019 16.8516C33.437 15.2484 32.7046 12.9901 32.7046 10.0767C32.7046 7.20394 33.5306 4.95785 35.1826 3.33838C36.8346 1.71077 39.1092 0.896973 42.0063 0.896973C43.87 0.896973 45.6359 1.25505 47.3042 1.97119L46.2788 4.40039C44.8302 3.73307 43.3817 3.39941 41.9331 3.39941C40.0288 3.39941 38.5233 3.99756 37.4165 5.19385C36.3097 6.39014 35.7563 8.02588 35.7563 10.1011C35.7563 12.2821 36.2528 13.9422 37.2456 15.0815C38.2466 16.2127 39.6829 16.7783 41.5547 16.7783C42.4987 16.7783 43.5078 16.6603 44.582 16.4243V11.8223H40.8833V9.31982ZM67.5923 10.0522C67.5923 12.9575 66.8639 15.2158 65.4072 16.8271C63.9587 18.4385 61.9038 19.2441 59.2427 19.2441C56.549 19.2441 54.4779 18.4466 53.0293 16.8516C51.5889 15.2484 50.8687 12.9738 50.8687 10.0278C50.8687 7.08187 51.5929 4.8195 53.0415 3.24072C54.4982 1.66195 56.5734 0.872559 59.2671 0.872559C61.9201 0.872559 63.9709 1.67415 65.4194 3.27734C66.868 4.88053 67.5923 7.13883 67.5923 10.0522ZM53.9692 10.0522C53.9692 12.2495 54.4128 13.9178 55.2998 15.0571C56.1868 16.1883 57.5011 16.7539 59.2427 16.7539C60.9761 16.7539 62.2822 16.1924 63.1611 15.0693C64.0482 13.9463 64.4917 12.2739 64.4917 10.0522C64.4917 7.86312 64.0522 6.20296 63.1733 5.07178C62.3026 3.94059 61.0005 3.375 59.2671 3.375C57.5174 3.375 56.195 3.94059 55.2998 5.07178C54.4128 6.20296 53.9692 7.86312 53.9692 10.0522Z" fill="black"/>
</svg>
