<svg width="27" height="26" viewBox="0 0 27 26" fill="none" xmlns="http://www.w3.org/2000/svg">
<rect x="4.77417" y="4.33331" width="6.5" height="6.5" rx="1" stroke="#4B465C" stroke-width="2" stroke-linecap="round" stroke-linejoin="round"/>
<rect x="4.77417" y="4.33331" width="6.5" height="6.5" rx="1" stroke="white" stroke-opacity="0.2" stroke-width="2" stroke-linecap="round" stroke-linejoin="round"/>
<rect x="15.6077" y="4.33331" width="6.5" height="6.5" rx="1" stroke="#4B465C" stroke-width="2" stroke-linecap="round" stroke-linejoin="round"/>
<rect x="15.6077" y="4.33331" width="6.5" height="6.5" rx="1" stroke="white" stroke-opacity="0.2" stroke-width="2" stroke-linecap="round" stroke-linejoin="round"/>
<rect x="4.77417" y="15.1667" width="6.5" height="6.5" rx="1" stroke="#4B465C" stroke-width="2" stroke-linecap="round" stroke-linejoin="round"/>
<rect x="4.77417" y="15.1667" width="6.5" height="6.5" rx="1" stroke="white" stroke-opacity="0.2" stroke-width="2" stroke-linecap="round" stroke-linejoin="round"/>
<path d="M15.6077 17.4167C15.0554 17.4167 14.6077 17.8644 14.6077 18.4167C14.6077 18.969 15.0554 19.4167 15.6077 19.4167V17.4167ZM22.1077 19.4167C22.6599 19.4167 23.1077 18.969 23.1077 18.4167C23.1077 17.8644 22.6599 17.4167 22.1077 17.4167V19.4167ZM19.8577 15.1667C19.8577 14.6144 19.41 14.1667 18.8577 14.1667C18.3054 14.1667 17.8577 14.6144 17.8577 15.1667H19.8577ZM17.8577 21.6667C17.8577 22.219 18.3054 22.6667 18.8577 22.6667C19.41 22.6667 19.8577 22.219 19.8577 21.6667H17.8577ZM15.6077 19.4167H22.1077V17.4167H15.6077V19.4167ZM17.8577 15.1667V21.6667H19.8577V15.1667H17.8577Z" fill="#4B465C"/>
<path d="M15.6077 17.4167C15.0554 17.4167 14.6077 17.8644 14.6077 18.4167C14.6077 18.969 15.0554 19.4167 15.6077 19.4167V17.4167ZM22.1077 19.4167C22.6599 19.4167 23.1077 18.969 23.1077 18.4167C23.1077 17.8644 22.6599 17.4167 22.1077 17.4167V19.4167ZM19.8577 15.1667C19.8577 14.6144 19.41 14.1667 18.8577 14.1667C18.3054 14.1667 17.8577 14.6144 17.8577 15.1667H19.8577ZM17.8577 21.6667C17.8577 22.219 18.3054 22.6667 18.8577 22.6667C19.41 22.6667 19.8577 22.219 19.8577 21.6667H17.8577ZM15.6077 19.4167H22.1077V17.4167H15.6077V19.4167ZM17.8577 15.1667V21.6667H19.8577V15.1667H17.8577Z" fill="white" fill-opacity="0.2"/>
</svg>
