<svg width="18" height="18" viewBox="0 0 18 18" fill="none" xmlns="http://www.w3.org/2000/svg">
<path d="M15.9266 1.49486C15.7805 1.49912 15.6418 1.56006 15.5398 1.66478L1.66484 15.5398C1.61086 15.5916 1.56776 15.6537 1.53807 15.7224C1.50838 15.7911 1.49269 15.865 1.49193 15.9399C1.49117 16.0147 1.50535 16.0889 1.53364 16.1582C1.56193 16.2275 1.60375 16.2904 1.65667 16.3434C1.70959 16.3963 1.77254 16.4381 1.84182 16.4664C1.91111 16.4947 1.98534 16.5089 2.06018 16.5081C2.13501 16.5073 2.20894 16.4917 2.27764 16.462C2.34634 16.4323 2.40842 16.3892 2.46025 16.3352L6.34355 12.4519C7.00681 13.1697 7.95017 13.6238 9.00005 13.6238C10.9988 13.6238 12.6263 11.9962 12.6263 10.0012C12.6263 8.95128 12.1723 8.00517 11.4544 7.34105L13.1448 5.65062C14.9642 6.71591 16.3759 8.43631 16.8941 10.4509C16.9578 10.7059 17.1863 10.875 17.4375 10.875C17.4825 10.875 17.531 10.8709 17.576 10.8559C17.8797 10.7809 18.0598 10.4741 17.981 10.1741C17.4036 7.92308 15.923 6.0274 13.9791 4.8164L16.3353 2.46019C16.4164 2.38116 16.4718 2.27947 16.4942 2.16843C16.5166 2.05739 16.505 1.94218 16.4608 1.83786C16.4166 1.73355 16.342 1.645 16.2467 1.5838C16.1514 1.5226 16.0398 1.4916 15.9266 1.49486ZM8.99639 3.37499C4.80764 3.37499 1.03159 6.23281 0.0190904 10.1741C-0.0596596 10.4741 0.12037 10.7809 0.42412 10.8559C0.72412 10.9347 1.031 10.7547 1.106 10.4509C1.97975 7.05717 5.37389 4.49999 8.99639 4.49999C9.63764 4.49999 10.2711 4.57842 10.8824 4.73217L11.8052 3.81005C10.909 3.52505 9.96389 3.37499 8.99639 3.37499ZM9.00005 6.37499C7.0013 6.37499 5.37749 8.00246 5.37749 10.0012C5.37749 10.0762 5.38106 10.1547 5.38481 10.2297L9.23223 6.38231C9.15347 6.37856 9.0788 6.37499 9.00005 6.37499Z" fill="black"/>
</svg>
